<?xml version="1.0" encoding="iso-8859-1"?>
<!-- Generator: Adobe Illustrator 19.0.0, SVG Export Plug-In . SVG Version: 6.00 Build 0)  -->
<svg version="1.1" id="Capa_1" xmlns="http://www.w3.org/2000/svg" xmlns:xlink="http://www.w3.org/1999/xlink" x="0px" y="0px"
	 viewBox="0 0 512 512" style="enable-background:new 0 0 512 512;" xml:space="preserve">
<g>
	<path style="fill:#C87D5F;" d="M256,89.402c-2.627,0-5.087-1.266-6.611-3.405c-38.539-53.952-92.602-69.896-93.142-70.051
		c-4.317-1.234-6.817-5.73-5.587-10.048c1.238-4.321,5.762-6.809,10.048-5.579c2.309,0.659,54.277,15.992,95.293,67.467
		c41.015-51.476,92.983-66.809,95.293-67.467c4.333-1.246,8.794,1.266,10.032,5.571c1.238,4.309-1.246,8.805-5.555,10.051
		c-0.548,0.159-54.785,16.333-93.158,70.055C261.087,88.136,258.627,89.402,256,89.402z"/>
	<path style="fill:#C87D5F;" d="M290.679,87.791L290.679,87.791c-1.244-3.731-4.643-6.69-8.573-6.525
		c-5.547,0.233-10.091-4.32-9.843-9.87c0.363-8.125-7.106-14.502-15.239-14.502h-2.049c-8.133,0-15.602,6.377-15.239,14.502
		c0.248,5.55-4.296,10.103-9.843,9.87c-3.929-0.165-7.329,2.794-8.573,6.525l0,0c-2.739,8.216-4.394,16.755-4.924,25.4
		l-1.031,16.845h81.269l-1.031-16.845C295.074,104.546,293.419,96.008,290.679,87.791z"/>
	<path style="fill:#C87D5F;" d="M215.358,146.294c-1.071,0-2.159-0.214-3.206-0.667l-52.904-22.785
		c-4.802-1.925-8.476-6.254-9.635-11.496l-14.325-64.452l-20.016-6.671c-4.254-1.421-6.555-6.02-5.135-10.282
		c1.421-4.254,5.976-6.563,10.278-5.139l20.016,6.671c5.389,1.802,9.5,6.361,10.73,11.897l14.325,64.46l53.095,22.869
		c4.119,1.774,6.024,6.555,4.246,10.678C221.508,144.453,218.508,146.294,215.358,146.294z"/>
	<path style="fill:#C87D5F;" d="M83.002,211.305H60.955c-4.492,0-8.127-3.639-8.127-8.127c0-4.488,3.635-8.127,8.127-8.127h22.047
		l61.063-38.166c2.603-1.615,5.579-2.468,8.619-2.468h62.682c4.492,0,8.127,3.639,8.127,8.127c0,4.488-3.635,8.127-8.127,8.127
		h-62.682l-61.063,38.166C89.018,210.452,86.042,211.305,83.002,211.305z"/>
	<path style="fill:#C87D5F;" d="M296.642,146.294c-3.151,0-6.151-1.841-7.468-4.917c-1.778-4.123,0.127-8.905,4.246-10.678
		l52.904-22.785l14.516-64.543c1.23-5.536,5.341-10.095,10.722-11.893l20.024-6.675c4.294-1.425,8.857,0.885,10.278,5.139
		c1.421,4.262-0.881,8.861-5.135,10.282l-20.016,6.671l-14.325,64.46c-1.159,5.234-4.833,9.563-9.825,11.567l-52.714,22.706
		C298.801,146.08,297.714,146.294,296.642,146.294z"/>
	<path style="fill:#C87D5F;" d="M451.045,211.305h-22.047c-3.04,0-6.016-0.853-8.603-2.464l-61.079-38.17h-62.682
		c-4.492,0-8.127-3.639-8.127-8.127c0-4.488,3.635-8.127,8.127-8.127h62.682c3.04,0,6.016,0.853,8.603,2.464l61.079,38.17h22.047
		c4.492,0,8.127,3.639,8.127,8.127C459.172,207.666,455.537,211.305,451.045,211.305z"/>
	<path style="fill:#C87D5F;" d="M93.462,471.366c-2.079,0-4.159-0.794-5.746-2.381c-3.175-3.175-3.175-8.317,0-11.492l13.873-13.873
		V273.217c0-6.198,3.444-11.77,8.984-14.54l60.523-30.262c4.024-2.012,8.889-0.385,10.905,3.635
		c2.008,4.016,0.381,8.897-3.635,10.905l-60.523,30.262v173.768c0,2.155-0.857,4.222-2.381,5.746l-16.254,16.254
		C97.621,470.572,95.542,471.366,93.462,471.366z"/>
	<path style="fill:#C87D5F;" d="M418.538,471.366c-2.079,0-4.159-0.794-5.746-2.381l-16.254-16.254
		c-1.524-1.524-2.381-3.591-2.381-5.746V273.217l-60.523-30.262c-4.016-2.008-5.643-6.889-3.635-10.905
		c2.016-4.02,6.881-5.647,10.905-3.635l60.523,30.262c5.54,2.77,8.984,8.341,8.984,14.54V443.62l13.873,13.873
		c3.175,3.175,3.175,8.317,0,11.492C422.696,470.572,420.617,471.366,418.538,471.366z"/>
</g>
<path style="fill:#B4695F;" d="M302.336,105.23c-2.47-3.46-7.305-4.299-10.866-1.976c-10.2,6.656-22.382,10.528-35.47,10.528
	c-13.084,0-25.263-3.869-35.46-10.521c-3.579-2.334-8.428-1.466-10.907,2.014c-6.612,9.281-10.491,20.622-10.492,32.888h-0.029
	c0,31.418,25.47,56.888,56.888,56.888s56.888-25.47,56.888-56.888C312.888,125.876,308.969,114.521,302.336,105.23z"/>
<path style="fill:#AA554B;" d="M256,162.544c67.325,0,121.903,65.015,121.903,154.411C377.903,414.477,323.325,512,256,512
	s-121.903-97.523-121.903-195.045C134.097,227.559,188.675,162.544,256,162.544z"/>
<path id="SVGCleanerId_0" style="fill:#964B41;" d="M316.66,182.25c22.439,23.717,36.863,60.883,36.863,105.032
	c0,83.915-43.662,167.829-97.523,167.829s-97.523-83.915-97.523-167.829c0-44.149,14.424-81.315,36.863-105.032
	c-36.566,25.735-61.244,74.664-61.244,134.704C134.097,414.477,188.675,512,256,512c67.326,0,121.903-97.523,121.903-195.045
	C377.903,256.914,353.225,207.985,316.66,182.25z"/>
<g>
	<path style="fill:#964B41;" d="M346.175,211.683c-3.206-4.405-6.591-8.574-10.187-12.454c-19.39,17.31-48.024,28.33-79.988,28.33
		s-60.598-11.019-79.988-28.33c-3.596,3.879-6.981,8.049-10.187,12.454c22.318,19.678,54.421,32.13,90.175,32.13
		S323.857,231.361,346.175,211.683z"/>
	<path style="fill:#964B41;" d="M137.715,278.901c-0.99,5.254-1.777,10.625-2.351,16.123c36.479,7.691,77.855,11.772,120.573,11.772
		c42.778,0,84.19-4.085,120.697-11.793c-0.574-5.498-1.361-10.871-2.353-16.126c-35.648,7.617-76.27,11.665-118.344,11.665
		C213.927,290.542,173.335,286.502,137.715,278.901z"/>
	<path style="fill:#964B41;" d="M134.394,328.782c0.245,5.486,0.638,10.959,1.212,16.403c36.213,2.796,77.534,4.278,120.418,4.278
		c42.856,0,84.176-1.486,120.37-4.278c0.573-5.442,0.967-10.915,1.212-16.399c-36.365,2.886-78.154,4.424-121.582,4.424
		C212.56,333.208,170.777,331.67,134.394,328.782z"/>
	<path style="fill:#964B41;" d="M146.264,397.521h219.473c1.635-5.326,3.107-10.754,4.432-16.254H141.831
		C143.156,386.767,144.629,392.195,146.264,397.521z"/>
</g>
<g>
	<path id="SVGCleanerId_0_1_" style="fill:#964B41;" d="M316.66,182.25c22.439,23.717,36.863,60.883,36.863,105.032
		c0,83.915-43.662,167.829-97.523,167.829s-97.523-83.915-97.523-167.829c0-44.149,14.424-81.315,36.863-105.032
		c-36.566,25.735-61.244,74.664-61.244,134.704C134.097,414.477,188.675,512,256,512c67.326,0,121.903-97.523,121.903-195.045
		C377.903,256.914,353.225,207.985,316.66,182.25z"/>
</g>
<path style="fill:#964B41;" d="M349.332,438.179H162.668c3.031,5.909,6.274,11.557,9.697,16.932h167.27
	C343.058,449.737,346.301,444.089,349.332,438.179z"/>
<g>
	<path style="fill:#7D413C;" d="M172.365,455.112h167.27c3.423-5.375,6.666-11.023,9.697-16.932h-52.381
		c-12.455,10.702-26.321,16.932-40.951,16.932c-14.63,0-28.497-6.23-40.951-16.932h-52.38
		C165.699,444.089,168.942,449.737,172.365,455.112z"/>
	<path style="fill:#7D413C;" d="M146.264,397.521h38.018c-2.69-5.178-5.194-10.616-7.515-16.254h-34.936
		C143.156,386.767,144.629,392.195,146.264,397.521z"/>
	<path style="fill:#7D413C;" d="M370.169,381.267h-34.936c-2.321,5.638-4.825,11.076-7.515,16.254h38.019
		C367.372,392.195,368.844,386.767,370.169,381.267z"/>
	<path style="fill:#7D413C;" d="M162.301,330.671c-9.593-0.546-18.917-1.176-27.906-1.889c0.245,5.486,0.638,10.959,1.212,16.403
		c9.689,0.748,19.766,1.394,30.119,1.951C164.41,341.734,163.271,336.237,162.301,330.671z"/>
	<path style="fill:#7D413C;" d="M376.393,345.184c0.573-5.442,0.967-10.915,1.212-16.399c-8.988,0.713-18.313,1.343-27.907,1.888
		c-0.971,5.564-2.11,11.06-3.424,16.461C356.628,346.577,366.706,345.931,376.393,345.184z"/>
	<path style="fill:#7D413C;" d="M158.477,287.282c0-1.52,0.149-2.964,0.183-4.467c-7.129-1.187-14.153-2.465-20.946-3.914
		c-0.99,5.254-1.777,10.625-2.351,16.123c7.574,1.597,15.474,2.94,23.437,4.222C158.607,295.262,158.477,291.274,158.477,287.282z"
		/>
	<path style="fill:#7D413C;" d="M353.523,287.282c0,3.987-0.129,7.971-0.323,11.948c7.963-1.283,15.861-2.628,23.434-4.227
		c-0.574-5.498-1.361-10.871-2.353-16.126c-6.792,1.451-13.813,2.73-20.941,3.919C353.373,284.306,353.523,285.755,353.523,287.282z
		"/>
	<path style="fill:#7D413C;" d="M339.365,217.114c2.332-1.76,4.655-3.531,6.81-5.43c-3.206-4.405-6.591-8.574-10.187-12.454
		c-1.284,1.146-2.713,2.188-4.076,3.278C334.654,207.082,337.09,212.014,339.365,217.114z"/>
	<path style="fill:#7D413C;" d="M165.825,211.683c2.155,1.9,4.478,3.67,6.81,5.43c2.275-5.099,4.71-10.032,7.453-14.606
		c-1.364-1.09-2.792-2.132-4.076-3.278C172.416,203.109,169.032,207.278,165.825,211.683z"/>
</g>
<g>
</g>
<g>
</g>
<g>
</g>
<g>
</g>
<g>
</g>
<g>
</g>
<g>
</g>
<g>
</g>
<g>
</g>
<g>
</g>
<g>
</g>
<g>
</g>
<g>
</g>
<g>
</g>
<g>
</g>
</svg>
