<svg height="512pt" viewBox="-32 0 512 512.00029" width="512pt" xmlns="http://www.w3.org/2000/svg"><path d="m224.398438 512c-4.351563 0-8.488282-1.890625-11.335938-5.175781l-48.929688-56.457031c-22.613281-26.09375-35.066406-59.480469-35.066406-94.007813v-68.226563c0-52.640624 42.589844-95.332031 95.332032-95.332031 52.65625 0 95.332031 42.601563 95.332031 95.332031v68.226563c0 34.527344-12.453125 67.914063-35.066407 94.007813l-48.929687 56.457031c-2.851563 3.285156-6.984375 5.175781-11.335937 5.175781zm0 0" fill="#ffcc4b"/><path d="m235.734375 506.824219 48.929687-56.457031c22.613282-26.097657 35.066407-59.480469 35.066407-94.007813v-68.226563c0-52.730468-42.675781-95.332031-95.332031-95.332031v319.199219c4.351562 0 8.484374-1.890625 11.335937-5.175781zm0 0" fill="#ffb826"/><path d="m250.128906 131.609375-19.328125-8.285156c-2.277343-.976563-3.332031-3.613281-2.355469-5.890625l27.449219-64.046875c13.820313-32.265625 45.34375-53.171875 80.417969-53.386719 8.203125-.0507812 15.265625 6.289062 15.539062 14.484375.285157 8.519531-6.53125 15.515625-14.988281 15.515625h-.007812c-23.269531 0-44.226563 13.816406-53.386719 35.203125l-27.449219 64.050781c-.976562 2.273438-3.613281 3.332032-5.890625 2.355469zm0 0" fill="#272027"/><path d="m198.664062 131.609375 19.332032-8.285156c2.277344-.976563 3.332031-3.613281 2.355468-5.890625l-27.449218-64.046875c-13.824219-32.265625-45.347656-53.171875-80.417969-53.386719-8.203125-.0507812-15.265625 6.289062-15.539063 14.484375-.285156 8.519531 6.53125 15.515625 14.988282 15.515625h.007812c23.269532 0 44.222656 13.816406 53.386719 35.203125l27.449219 64.050781c.976562 2.273438 3.613281 3.332032 5.886718 2.355469zm0 0" fill="#393238"/><path d="m248.496094 222.800781h-48.199219c-30.417969 0-55.164063-24.75-55.164063-55.167969 0-30.417968 24.746094-55.167968 55.164063-55.167968h48.199219c30.421875 0 55.167968 24.75 55.167968 55.167968 0 30.417969-24.746093 55.167969-55.167968 55.167969zm0 0" fill="#4b4449"/><path d="m312.378906 401.671875c-3.480468 10.488281-8.171875 20.558594-13.992187 30h-147.980469c-5.816406-9.453125-10.507812-19.523437-13.988281-30zm0 0" fill="#4b4449"/><path d="m319.726562 337.398438v18.960937c0 3.699219-.136718 7.382813-.4375 11.039063h-189.78125c-.300781-3.65625-.441406-7.339844-.441406-11.039063v-18.960937zm0 0" fill="#4b4449"/><path d="m319.726562 288.128906v15h-190.660156v-15c0-5.097656.402344-10.109375 1.179688-15h188.300781c.78125 4.890625 1.179687 9.902344 1.179687 15zm0 0" fill="#4b4449"/><g fill="#393238"><path d="m312.378906 401.671875c-3.480468 10.488281-8.171875 20.558594-13.992187 30h-73.988281v-30zm0 0"/><path d="m319.726562 337.398438v18.960937c0 3.699219-.136718 7.382813-.4375 11.039063h-94.890624v-30zm0 0"/><path d="m319.726562 288.128906v15h-95.328124v-30h94.148437c.78125 4.890625 1.179687 9.902344 1.179687 15zm0 0"/><path d="m248.496094 112.46875h-24.097656v110.332031h24.097656c30.421875 0 55.167968-24.75 55.167968-55.167969 0-30.417968-24.746093-55.164062-55.167968-55.164062zm0 0"/></g><path d="m365.824219 512c-41.742188 0-76.09375-33.691406-76.09375-76.050781v-163.882813c0-13.332031 16.175781-20.035156 25.609375-10.605468 0 0 54 53.996093 109.074218 109.082031 52.140626 52.140625 15.097657 141.457031-58.589843 141.457031zm0 0" fill="#cfdbe5"/><path d="m24.382812 370.542969c55.074219-55.085938 109.074219-109.082031 109.074219-109.082031 9.429688-9.429688 25.605469-2.726563 25.605469 10.605468v163.882813c0 42.359375-34.347656 76.050781-76.089844 76.050781-73.691406 0-110.730468-89.316406-58.589844-141.457031zm0 0" fill="#e6edf4"/></svg>