<svg height="512pt" viewBox="-16 0 512 512.00001" width="512pt" xmlns="http://www.w3.org/2000/svg"><path d="m36.617188 490.355469c-7.472657 0-13.9375-5.578125-14.867188-13.179688l-21.636719-176.980469c-.796875-6.507812 2.726563-12.777343 8.695313-15.484374l144.75-65.566407c7.546875-3.417969 16.4375-.070312 19.855468 7.476563 3.417969 7.546875.070313 16.433594-7.476562 19.851562l-134.710938 61.019532 20.296876 166.042968c1.007812 8.222656-4.84375 15.703125-13.066407 16.707032-.617187.074218-1.234375.113281-1.839843.113281zm0 0" fill="#1e233c"/><path d="m443.199219 490.355469c-.605469 0-1.21875-.039063-1.839844-.113281-8.222656-1.003907-14.074219-8.484376-13.066406-16.707032l20.300781-166.042968-134.714844-61.019532c-7.546875-3.417968-10.890625-12.304687-7.472656-19.851562s12.304688-10.890625 19.851562-7.476563l144.75 65.566407c5.972657 2.707031 9.496094 8.976562 8.699219 15.484374l-21.636719 176.976563c-.929687 7.605469-7.398437 13.183594-14.871093 13.183594zm0 0"/><path d="m183.96875 213.195312h-111.421875c-3.75 0-7.363281-1.40625-10.128906-3.9375l-33.328125-30.503906c-6.109375-5.59375-6.527344-15.082031-.933594-21.191406 5.589844-6.113281 15.078125-6.53125 21.191406-.9375l29.027344 26.570312h105.59375c8.28125 0 15 6.714844 15 15 0 8.28125-6.714844 15-15 15zm0 0" fill="#1e233c"/><path d="m407.269531 213.195312h-111.421875c-8.28125 0-15-6.71875-15-15 0-8.285156 6.71875-15 15-15h105.59375l29.027344-26.570312c6.113281-5.59375 15.597656-5.175781 21.191406.9375 5.59375 6.109375 5.175782 15.597656-.933594 21.191406l-33.328124 30.503906c-2.765626 2.53125-6.378907 3.9375-10.128907 3.9375zm0 0"/><path d="m177.992188 164.0625c-2.648438 0-5.328126-.699219-7.757813-2.171875l-72.375-43.867187c-5.648437-3.421876-8.394531-10.136719-6.761719-16.53125l22.992188-90.195313c2.046875-8.027344 10.214844-12.875 18.238281-10.828125 8.027344 2.046875 12.875 10.210938 10.832031 18.238281l-20.246094 79.421875 62.867188 38.105469c7.085938 4.292969 9.347656 13.515625 5.054688 20.601563-2.824219 4.652343-7.773438 7.226562-12.84375 7.226562zm0 0" fill="#1e233c"/><path d="m301.824219 164.0625c-5.070313 0-10.019531-2.574219-12.839844-7.226562-4.296875-7.082032-2.03125-16.308594 5.050781-20.601563l62.871094-38.105469-20.246094-79.421875c-2.046875-8.027343 2.800782-16.191406 10.828125-18.238281 8.027344-2.046875 16.195313 2.800781 18.238281 10.828125l22.992188 90.195313c1.632812 6.394531-1.113281 13.109374-6.757812 16.53125l-72.375 43.867187c-2.429688 1.472656-5.113282 2.171875-7.761719 2.171875zm0 0"/><path d="m272.535156 128.730469c-3.746094 0-7.5-1.394531-10.410156-4.203125-5.960938-5.75-6.132812-15.246094-.382812-21.207032 3.847656-3.988281 5.910156-9.238281 5.8125-14.777343-.101563-5.539063-2.351563-10.707031-6.339844-14.554688-5.960938-5.75-6.132813-15.246093-.378906-21.207031 5.75-5.960938 15.246093-6.136719 21.207031-.382812 9.753906 9.410156 15.261719 22.054687 15.503906 35.605468.246094 13.550782-4.800781 26.386719-14.210937 36.140625-2.945313 3.050781-6.871094 4.585938-10.800782 4.585938zm0 0"/><path d="m207.28125 128.730469c-3.929688 0-7.855469-1.53125-10.796875-4.585938-9.410156-9.753906-14.457031-22.589843-14.214844-36.140625.242188-13.550781 5.75-26.195312 15.503907-35.605468 5.960937-5.753907 15.457031-5.582032 21.210937.382812 5.75 5.960938 5.578125 15.457031-.382813 21.207031-3.984374 3.847657-6.238281 9.015625-6.335937 14.554688-.101563 5.539062 1.960937 10.789062 5.808594 14.777343 5.753906 5.960938 5.582031 15.457032-.382813 21.207032-2.910156 2.808594-6.664062 4.203125-10.410156 4.203125zm0 0" fill="#1e233c"/><path d="m239.910156 252.117188c-46.554687 0-84.429687-37.875-84.429687-84.429688 0-46.550781 37.875-84.425781 84.429687-84.425781 46.554688 0 84.429688 37.875 84.429688 84.425781 0 46.554688-37.878906 84.429688-84.429688 84.429688zm0 0" fill="#41465f"/><path d="m239.910156 512c-90.652344 0-164.402344-73.75-164.402344-164.402344s73.75-164.402344 164.402344-164.402344 164.402344 73.75 164.402344 164.402344-73.75 164.402344-164.402344 164.402344zm0 0" fill="#5a6482"/><path d="m239.910156 83.261719c46.554688 0 84.429688 37.875 84.429688 84.425781 0 46.554688-37.875 84.429688-84.429688 84.429688zm0 0" fill="#131623"/><path d="m239.910156 183.195312c90.652344 0 164.402344 73.75 164.402344 164.402344s-73.75 164.402344-164.402344 164.402344zm0 0" fill="#323750"/><path d="m279.824219 276.464844h-24.914063v-33.984375c0-8.285157-6.71875-15-15-15-8.285156 0-15 6.714843-15 15v33.984375h-24.917968c-8.28125 0-15 6.714844-15 15 0 8.28125 6.71875 15 15 15h24.917968v104.835937c0 8.285157 6.714844 15 15 15 8.28125 0 15-6.714843 15-15v-104.835937h24.914063c8.285156 0 15-6.714844 15-15s-6.714844-15-15-15zm0 0" fill="#ff432e"/><path d="m239.910156 426.300781c8.28125 0 15-6.714843 15-15v-104.835937h24.914063c8.285156 0 15-6.714844 15-15s-6.714844-15-15-15h-24.914063v-33.984375c0-8.285157-6.71875-15-15-15zm0 0" fill="#db0404"/></svg>