<svg height="512pt" viewBox="0 0 512 512.001" width="512pt" xmlns="http://www.w3.org/2000/svg"><path d="m263.066406 91.265625c-6.628906-4.972656-7.96875-14.375-2.996094-21 0 0 9.035157-12.042969 19.273438-25.703125 20.929688-27.90625 54.242188-44.5625 89.125-44.5625 8.28125 0 15 6.714844 15 15s-6.71875 15-15 15c-47.519531 0-67.027344 35.109375-84.402344 58.269531-5.144531 6.855469-14.597656 7.800781-21 2.996094zm0 0" fill="#272027"/><path d="m248.933594 91.265625c6.628906-4.972656 7.96875-14.375 3-21-.003906 0-9.035156-12.042969-19.277344-25.703125-20.925781-27.90625-54.242188-44.5625-89.121094-44.5625-8.285156 0-15 6.714844-15 15s6.714844 15 15 15c47.515625 0 67.023438 35.109375 84.398438 58.269531 5.144531 6.855469 14.597656 7.800781 21 2.996094zm0 0" fill="#393238"/><path d="m256 512c-4.351562 0-8.488281-1.890625-11.335938-5.175781l-48.929687-56.457031c-37.34375-43.09375-35.066406-90.75-35.066406-97.964844 0-52.566406 42.765625-95.335938 95.332031-95.335938s95.332031 42.769532 95.332031 95.335938c0 7.179687 2.28125 54.871094-35.066406 97.964844l-48.929687 56.457031c-2.847657 3.285156-6.984376 5.175781-11.335938 5.175781zm0 0" fill="#ffcc4b"/><path d="m256 257.066406c-.359375 0-.710938.011719-1.070312.015625v254.859375c.355468.027344.710937.058594 1.070312.058594 4.351562 0 8.488281-1.886719 11.335938-5.175781l48.929687-56.457031c37.347656-43.09375 35.070313-90.785157 35.070313-97.964844-.003907-52.570313-42.769532-95.335938-95.335938-95.335938zm0 0" fill="#ffb826"/><path d="m346.121094 321.328125h-180.242188c-3.269531 9.421875-5.089844 19.511719-5.199218 30h190.640624c-.109374-10.488281-1.929687-20.578125-5.199218-30zm-172.691406 94.273437h165.128906c4.851562-10.730468 7.871094-20.972656 9.75-30h-184.617188c1.878906 9.027344 4.898438 19.269532 9.738282 30zm0 0" fill="#4b4449"/><path d="m346.121094 321.328125h-91.191406v30h96.390624c-.109374-10.488281-1.929687-20.578125-5.199218-30zm-91.191406 94.273437h83.628906c4.851562-10.730468 7.871094-20.972656 9.75-30h-93.378906zm0 0" fill="#393238"/><path d="m256 287.066406c-43.707031 0-79.265625-35.558594-79.265625-79.265625s35.558594-79.269531 79.265625-79.269531 79.265625 35.5625 79.265625 79.269531-35.558594 79.265625-79.265625 79.265625zm0 0" fill="#ffb826"/><path d="m316.691406 156.851562c-14.5625-17.300781-36.359375-28.320312-60.691406-28.320312-.359375 0-.71875 0-1.070312.019531v158.5c.351562.019531.710937.019531 1.070312.019531 18.289062 0 35.152344-6.21875 48.570312-16.671874 18.671876-14.507813 30.699219-37.179688 30.699219-62.597657 0-19.390625-6.988281-37.160156-18.578125-50.949219zm0 0" fill="#ffa300"/><path d="m304.214844 158.53125h-96.429688c-25.980468 0-47.117187-21.136719-47.117187-47.117188 0-26.011718 21.136719-47.148437 47.117187-47.148437h96.429688c25.980468 0 47.117187 21.136719 47.117187 47.117187v.03125c0 25.980469-21.132812 47.117188-47.117187 47.117188zm0 0" fill="#4b4449"/><path d="m304.21875 64.269531h-49.289062v94.261719h49.289062c4.320312 0 8.5-.582031 12.472656-1.679688 19.949219-5.480468 34.640625-23.773437 34.640625-45.429687v-.042969c0-25.980468-21.132812-47.109375-47.113281-47.109375zm0 0" fill="#393238"/><path d="m0 441.578125c0-30.1875 11.234375-59.066406 31.632812-81.320313l149.042969-162.59375c10.613281-11.578124 29.71875-.992187 25.511719 14.152344 0 0 0 0-69.890625 251.617188-1.949219 7.011718-15.984375 48.566406-65.882813 48.566406-38.957031 0-70.414062-31.523438-70.414062-70.421875zm0 0" fill="#e6edf4"/><path d="m441.585938 512c-49.898438 0-63.933594-41.554688-65.882813-48.566406l-69.886719-251.617188c-4.207031-15.144531 14.894532-25.730468 25.507813-14.152344l149.042969 162.59375c20.398437 22.253907 31.632812 51.132813 31.632812 81.320313 0 38.898437-31.457031 70.421875-70.414062 70.421875zm0 0" fill="#cfdbe5"/></svg>